<svg width="24" height="24" viewBox="0 0 24 24" fill="none" xmlns="http://www.w3.org/2000/svg">
<path d="M13.169 18.0001C13.0195 18.0001 12.872 17.9666 12.7372 17.9021C12.6023 17.8375 12.4837 17.7436 12.39 17.6271L11.29 16.2601L12.554 14.6441L13.154 15.3931L20.213 6.38414C20.2921 6.27568 20.3921 6.18425 20.5073 6.11528C20.6224 6.04631 20.7502 6.00123 20.8832 5.98271C21.0161 5.96419 21.1514 5.97262 21.281 6.00749C21.4106 6.04236 21.5318 6.10296 21.6375 6.18568C21.7432 6.2684 21.8311 6.37155 21.8961 6.48898C21.9611 6.60641 22.0018 6.73571 22.0157 6.86919C22.0297 7.00267 22.0166 7.13759 21.9773 7.26592C21.938 7.39425 21.8733 7.51335 21.787 7.61614L13.956 17.6161C13.8633 17.7347 13.745 17.8308 13.6099 17.8973C13.4749 17.9638 13.3265 17.999 13.176 18.0001H13.169ZM8.16901 18.0001C8.01937 18.0003 7.87161 17.9668 7.73661 17.9023C7.60161 17.8377 7.48283 17.7437 7.38901 17.6271L3.22101 12.4491C3.07266 12.2411 3.00955 11.9842 3.04463 11.7312C3.07972 11.4781 3.21033 11.2481 3.40967 11.0883C3.60901 10.9285 3.86196 10.851 4.11659 10.8718C4.37123 10.8926 4.60825 11.0101 4.77901 11.2001L8.15801 15.4001L15.213 6.38414C15.3797 6.18556 15.617 6.0595 15.8749 6.03255C16.1328 6.0056 16.3911 6.07986 16.5952 6.23967C16.7994 6.39948 16.9335 6.63234 16.9693 6.88915C17.0051 7.14595 16.9397 7.40661 16.787 7.61614L8.95601 17.6161C8.86328 17.7347 8.74498 17.8308 8.60992 17.8973C8.47486 17.9638 8.32654 17.999 8.17601 18.0001H8.16901ZM8.22001 12.4501C8.13132 12.3486 8.06409 12.2301 8.02237 12.1019C7.98065 11.9736 7.96529 11.8383 7.97722 11.704C7.98916 11.5696 8.02814 11.4391 8.09181 11.3203C8.15549 11.2014 8.24255 11.0966 8.34775 11.0123C8.45296 10.9279 8.57414 10.8657 8.70401 10.8294C8.83387 10.7931 8.96974 10.7834 9.10345 10.801C9.23715 10.8185 9.36592 10.8629 9.48201 10.9315C9.59811 11.0001 9.69913 11.0915 9.77901 11.2001L9.97901 11.4491L8.71301 13.0611L8.22001 12.4501Z" fill="#ffffff" id="id_101"></path>
</svg>